<svg xmlns="http://www.w3.org/2000/svg" width="315.0765625" height="315.0765625" viewBox="0 0 343.75000000000006 343.75000000000006">
  <defs id="SvgjsDefs2720">
    <linearGradient id="SvgjsLinearGradient2727">
      <stop id="SvgjsStop2728" stop-color="#6d7cff" offset="0"></stop>
      <stop id="SvgjsStop2729" stop-color="#ff51ff" offset="1"></stop>
    </linearGradient>
  </defs>
  <g id="SvgjsG2721" featurekey="rootContainer" transform="matrix(6.875000000000001,0,0,6.875000000000001,0.3437455743551255,0)" fill="#2b2e4a">
    <path xmlns="http://www.w3.org/2000/svg" d="M24.95 0a25 25 0 1 0 25 25 25 25 0 0 0-25-25zm0 46.91a22 22 0 1 1 22-22 22 22 0 0 1-22 21.99z">
    </path>
    <path xmlns="http://www.w3.org/2000/svg" d="M24.95 3.65a21.3 21.3 0 1 0 21.3 21.3 21.33 21.33 0 0 0-21.3-21.3z">
    </path>
  </g>
  <g id="SvgjsG2722" featurekey="xG21Y3-0" transform="matrix(0.608221044396164,0,0,0.608221044396164,-517.2697375320531,-740.1977637185231)" fill="url(#SvgjsLinearGradient2727)">
    <g xmlns="http://www.w3.org/2000/svg">
      <line fill="url(#SvgjsLinearGradient2727)" x1="977.5" y1="1537.6" x2="1017.6" y2="1537.6"></line>
      <path d="M1017.6,1539.2h-40.1c-0.9,0-1.6-0.7-1.6-1.6s0.7-1.6,1.6-1.6h40.1c0.9,0,1.6,0.7,1.6,1.6S1018.5,1539.2,1017.6,1539.2z"></path>
    </g>
    <path xmlns="http://www.w3.org/2000/svg" d="M986.2,1455.5c5.7,0,10.7,3.1,13.4,7.6c1.8-1.6,4.2-2.5,6.8-2.5c1.9,0,3.7,0.5,5.2,1.4c2.3-2.9,5.9-4.7,9.9-4.7  c7,0,12.7,5.7,12.7,12.7c0,7-5.7,12.7-12.7,12.7c-3.6,0-6.9-1.5-9.2-3.9c-1.7,1.2-3.7,1.8-5.9,1.8c-2.6,0-5-1-6.8-2.5  c-2.7,4.6-7.7,7.6-13.4,7.6s-10.7-3.1-13.4-7.6c-1.7,1.4-3.8,2.4-6.2,2.5c0,0.6-0.1,1.3,0,1.9c0,0.7,0,1.4,0.1,2  c0.1,1.4,0.3,2.7,0.5,4c0.1,0.6,0.2,1.3,0.4,1.8c0.1,0.3,0.1,0.6,0.2,0.9c0.1,0.3,0.1,0.5,0.2,0.8c0.1,0.3,0.1,0.5,0.2,0.7  c0.1,0.2,0.1,0.5,0.2,0.7c0.1,0.4,0.3,0.8,0.4,1.1c0.2,0.6,0.4,0.9,0.4,0.9c1.4,2.6,0.4,5.8-2.2,7.1c-0.8,0.4-1.6,0.6-2.5,0.6  c-1.9,0-3.7-1-4.7-2.8c-0.8-1.6-0.8-3.4,0-4.9c0,0,0.2-0.3,0.4-0.9c0.1-0.3,0.3-0.7,0.4-1.1c0.1-0.2,0.1-0.4,0.2-0.7  c0.1-0.2,0.1-0.5,0.2-0.7c0.1-0.3,0.1-0.5,0.2-0.8c0.1-0.3,0.1-0.6,0.2-0.9c0.1-0.6,0.3-1.2,0.4-1.8c0.2-1.3,0.4-2.6,0.5-4  c0-0.7,0.1-1.4,0.1-2c0-0.7,0-1.3,0-2c0-0.2,0-0.4,0-0.6c-3.8-1.5-6.5-5.1-6.5-9.3c0-5.5,4.6-10,10.2-10c2.6,0,5,1,6.8,2.5  C975.5,1458.5,980.5,1455.5,986.2,1455.5 M986.2,1452.1c-5.5,0-10.7,2.4-14.3,6.4c-1.8-0.9-3.9-1.3-5.9-1.3c-7.5,0-13.6,6-13.6,13.4  c0,4.8,2.5,9.1,6.6,11.4c0,0.1,0,0.3,0,0.4c0,0.5,0,1.1-0.1,1.8c-0.1,1.2-0.2,2.5-0.4,3.7c-0.1,0.5-0.2,1.1-0.3,1.7l0,0.1  c0,0.2-0.1,0.4-0.1,0.5l0,0.2c-0.1,0.3-0.1,0.5-0.2,0.7c-0.1,0.3-0.1,0.4-0.2,0.6l0,0.1c-0.1,0.2-0.1,0.4-0.2,0.5  c-0.1,0.3-0.2,0.6-0.3,0.9c-0.2,0.4-0.3,0.6-0.3,0.7c-1.3,2.5-1.3,5.5,0,8c1.5,2.9,4.4,4.6,7.7,4.6c1.4,0,2.8-0.3,4-1  c2-1.1,3.6-2.9,4.2-5.1c0.7-2.2,0.5-4.6-0.6-6.6c0,0,0,0,0,0c0,0-0.1-0.2-0.3-0.6c-0.1-0.3-0.2-0.6-0.3-0.9  c-0.1-0.2-0.1-0.4-0.2-0.6l0-0.1c-0.1-0.2-0.1-0.4-0.2-0.6c-0.1-0.3-0.1-0.5-0.2-0.7l0-0.2c0-0.2-0.1-0.4-0.1-0.6l0-0.1  c-0.1-0.6-0.2-1.1-0.3-1.7c-0.2-1.2-0.3-2.4-0.4-3.7c0-0.3,0-0.6-0.1-0.9c0.7-0.2,1.3-0.5,2-0.8c3.5,4,8.7,6.5,14.3,6.5  c5.5,0,10.7-2.4,14.3-6.4c1.8,0.9,3.9,1.3,5.9,1.3c1.9,0,3.7-0.4,5.4-1.1c2.8,2.1,6.1,3.2,9.7,3.2c8.9,0,16.1-7.2,16.1-16.1  s-7.2-16.1-16.1-16.1c-4,0-7.8,1.5-10.7,4.1c-1.4-0.5-2.9-0.7-4.4-0.7c-2.1,0-4.1,0.5-5.9,1.3  C996.9,1454.5,991.7,1452.1,986.2,1452.1L986.2,1452.1z">
    </path>
    <g xmlns="http://www.w3.org/2000/svg">
      <path d="M962.5,1477c-0.1,0-0.2,0-0.4-0.1c-2.9-1.1-4.7-3.8-4.7-6.8c0-4,3.3-7.3,7.4-7.3c0.5,0,1,0.4,1,1s-0.4,1-1,1   c-3,0-5.4,2.4-5.4,5.3c0,2.2,1.3,4.1,3.4,4.9c0.5,0.2,0.8,0.8,0.6,1.3C963.3,1476.8,962.9,1477,962.5,1477z"></path>
    </g>
    <g xmlns="http://www.w3.org/2000/svg">
      <path d="M962.4,1501.4c-0.3,0-0.5-0.1-0.7-0.3c-0.1-0.1-1.7-1.9-1.5-4.2c0-0.5,0.5-1,1.1-0.9c0.5,0,1,0.5,0.9,1.1   c-0.1,1.4,1,2.7,1,2.7c0.4,0.4,0.3,1-0.1,1.4C962.9,1501.3,962.7,1501.4,962.4,1501.4z"></path>
    </g>
    <path xmlns="http://www.w3.org/2000/svg" d="M1012.1,1480.8c-1.7,0.9-3.7,1.4-5.7,1.4c-2.3,0-4.5-0.6-6.3-1.8c-3.2,4.3-8.3,6.9-13.8,6.9c-3.9,0-7.7-1.4-10.7-3.7v43.1  c0,3.9,3.2,7,7,7h29.8c3.9,0,7-3.2,7-7v-42.6C1016.7,1483.8,1014.1,1482.7,1012.1,1480.8z M982.9,1522.2c0,0.8-0.6,1.4-1.4,1.4  s-1.4-0.6-1.4-1.4v-30c0-0.8,0.6-1.4,1.4-1.4s1.4,0.6,1.4,1.4V1522.2z">
    </path>
    <path xmlns="http://www.w3.org/2000/svg" d="M1025.2,1524.9c0.2,0.1,0.5,0.1,0.8,0.1c0.6,0,1.2-0.3,1.7-0.8c6.8-8,10.1-17.6,8.1-23.3c-0.8-2.4-3.2-5.4-9.6-5.9  c-0.6-0.1-1.2,0.2-1.7,0.6c-0.4,0.4-0.7,1-0.7,1.6v25.7C1023.8,1523.8,1024.3,1524.6,1025.2,1524.9z M1028.1,1499.7  c1.9,0.5,3,1.4,3.5,2.6c0.9,2.7-0.1,8-3.5,13.7V1499.7z">
    </path>
    <path xmlns="http://www.w3.org/2000/svg" d="M1045.2,1497.7c-1.4-4.2-5.6-11.2-17.1-12.5v-2.4c-1.3,0.7-2.8,1.2-4.4,1.4v3c0,1.2,0.9,2.1,2.1,2.2  c10,0.6,13.8,5.6,15.2,9.8c3.9,11.2-5.3,27.1-16.5,35.9c-0.5,0.4-0.8,1-0.8,1.7v0.8c0,2.7-2.2,4.8-4.8,4.8h-43.1  c-2.7,0-4.8-2.2-4.8-4.8v-37.2c-0.6,1.5-1.7,2.9-3.3,3.7c-0.4,0.2-0.7,0.3-1.1,0.5v33c0,5.1,4.1,9.2,9.2,9.2h43.1c5,0,9.1-4,9.2-9  C1039.9,1528,1049.8,1510.9,1045.2,1497.7z">
    </path>
  </g>
  <g id="SvgjsG2723" featurekey="n48U4P-0" transform="matrix(2.1863123356808765,0,0,2.1863123356808765,136.37992299125466,147.4585527452021)" fill="#ffffff">
    <path d="M1.516 9.6 c-0.14 0 -0.26 -0.1 -0.3 -0.22 c-0.06 -0.18 0.04 -0.36 0.2 -0.4 l9.94 -2.96 c0.18 -0.06 0.34 0.04 0.4 0.2 c0.04 0.18 -0.04 0.36 -0.22 0.4 l-9.94 2.96 c-0.02 0.02 -0.06 0.02 -0.08 0.02 z M11.976 8.12 c0.04 0.18 -0.04 0.33998 -0.22 0.39998 l-3.58 1.0078 l0 10.152 c0 0.18 -0.14 0.32 -0.32 0.32 l-1.8 0 c-0.18 0 -0.32 -0.14 -0.32 -0.32 l0 -9.4654 l-4.14 1.1654 c-0.02 0 -0.04 0.02 -0.08 0.02 c-0.14 0 -0.26 -0.1 -0.3 -0.24 c-0.04 -0.16 0.04 -0.32 0.22 -0.38 l10.16 -2.88 c0.16 -0.04 0.34 0.06 0.38 0.22 l0 0.000019531 z M7.536 9.708 l-1.1684 0.32878 l0.0083984 0.063204 l0 9.28 l1.16 0 l0 -9.672 z M22.293999999999997 5.417999999999999 c-0.646 0 -1.174 -0.544 -1.174 -1.212 c0 -0.67 0.528 -1.214 1.174 -1.214 c0.648 0 1.174 0.544 1.174 1.214 c0 0.668 -0.526 1.212 -1.174 1.212 z M16.786 5.446 c-0.646 0 -1.174 -0.544 -1.174 -1.212 c0 -0.67 0.528 -1.214 1.174 -1.214 c0.648 0 1.174 0.544 1.174 1.214 c0 0.668 -0.526 1.212 -1.174 1.212 z M22.293999999999997 3.532 c-0.348 0 -0.634 0.302 -0.634 0.67398 c0 0.37 0.286 0.672 0.634 0.672 c0.35 0 0.634 -0.302 0.634 -0.672 c0 -0.372 -0.284 -0.67398 -0.634 -0.67398 z M16.786 3.5599999999999987 c-0.348 0 -0.634 0.302 -0.634 0.67398 c0 0.37 0.286 0.672 0.634 0.672 c0.35 0 0.634 -0.302 0.634 -0.672 c0 -0.372 -0.284 -0.67398 -0.634 -0.67398 z M19.7 5.98 c3.7 0 6.7 3.16 6.7 7.04 c0 3.92 -3 7.06 -6.7 7.06 s-6.72 -3.14 -6.72 -7.06 c0 -3.88 3.02 -7.04 6.72 -7.04 z M13.6 13.02 c0 1.8506 0.7404 3.5066 1.9234 4.6704 l6.5966 -10.558 c-0.7414 -0.3418 -1.5598 -0.532 -2.42 -0.532 c-3.36 0 -6.1 2.9 -6.1 6.42 l0 0 z M22.66 7.42 l-6.6658 10.689 c0.3252 0.2604 0.6762 0.48738 1.048 0.67578 l6.509 -10.725 c-0.277 -0.2404 -0.5744 -0.45578 -0.8912 -0.63938 l0 0.000019531 z M19.7 19.41996 c3.36 0 6.08 -2.84 6.08 -6.4 c0 -1.7586 -0.679 -3.3626 -1.7776 -4.5274 l-6.3974 10.541 c0.6538 0.25 1.3594 0.386 2.095 0.386 l0 0 z M33.5328 10.912 l5.3672 8.5678 c0.1 0.16 0.04 0.36 -0.1 0.46 c-0.06 0.04 -0.12 0.06 -0.18 0.06 c-0.12 0 -0.22 -0.06 -0.28 -0.16 l-4.3272 -6.9076 l-2.6728 2.324 l0 4.3636 l-0.00060546 0.021796 c0.00039062 0.005996 0.00058594 0.012188 0.00058594 0.018379 c0 0.18 -0.16 0.34 -0.34 0.34 l-1.86 0 c-0.18 0 -0.34 -0.16 -0.3394 -0.3584 c-0.00039062 -0.0069922 -0.00058594 -0.014199 -0.00058594 -0.021602 l0 -13.18 c0 -0.18 0.14 -0.32 0.32 -0.32 c0.2 0 0.34 0.14 0.34 0.32 l0 12.9 l1.22 0 l0 -12.9 c0 -0.18 0.16 -0.32 0.34 -0.32 s0.32 0.14 0.32 0.32 l0 5.5028 l6.74 -5.8628 c0.14 -0.12199 0.34 -0.12 0.46 0.02 s0.11801 0.34 -0.02 0.46 z M33.662 12.372 l-0.63718 -1.017 l-1.6848 1.4702 l0 1.5658 z M41.656 9.6 c-0.14 0 -0.26 -0.1 -0.3 -0.22 c-0.06 -0.18 0.04 -0.36 0.2 -0.4 l9.94 -2.96 c0.18 -0.06 0.34 0.04 0.4 0.2 c0.04 0.18 -0.04 0.36 -0.22 0.4 l-9.94 2.96 c-0.02 0.02 -0.06 0.02 -0.08 0.02 z M52.116 8.12 c0.04 0.18 -0.04 0.33998 -0.22 0.39998 l-3.58 1.0078 l0 10.152 c0 0.18 -0.14 0.32 -0.32 0.32 l-1.8 0 c-0.18 0 -0.32 -0.14 -0.32 -0.32 l0 -9.4654 l-4.14 1.1654 c-0.02 0 -0.04 0.02 -0.08 0.02 c-0.14 0 -0.26 -0.1 -0.3 -0.24 c-0.04 -0.16 0.04 -0.32 0.22 -0.38 l10.16 -2.88 c0.16 -0.04 0.34 0.06 0.38 0.22 l0 0.000019531 z M47.676 9.708 l-1.1684 0.32878 l0.0083984 0.063204 l0 9.28 l1.16 0 l0 -9.672 z M59.84 5.98 c3.7 0 6.7 3.16 6.7 7.04 c0 3.92 -3 7.06 -6.7 7.06 s-6.72 -3.14 -6.72 -7.06 c0 -3.88 3.02 -7.04 6.72 -7.04 z M53.74 13.02 c0 1.8506 0.7404 3.5066 1.9234 4.6704 l6.5966 -10.558 c-0.7414 -0.3418 -1.5598 -0.532 -2.42 -0.532 c-3.36 0 -6.1 2.9 -6.1 6.42 l0 0 z M62.800000000000004 7.42 l-6.6658 10.689 c0.3252 0.2604 0.6762 0.48738 1.048 0.67578 l6.509 -10.725 c-0.277 -0.2404 -0.5744 -0.45578 -0.8912 -0.63938 l0 0.000019531 z M59.84 19.41992 c3.36 0 6.08 -2.84 6.08 -6.4 c0 -1.7586 -0.679 -3.3626 -1.7776 -4.5274 l-6.3974 10.541 c0.6538 0.25 1.3594 0.386 2.095 0.386 l0 0 z"></path>
  </g>
</svg>